<svg
  width="32"
  height="40"
  viewBox="0 0 32 40"
  fill="none"
  xmlns="http://www.w3.org/2000/svg"
>
  <path
    d="M31.7637 14.5634C31.7637 19.5052 30.3201 23.1199 27.4447 25.4075C24.5634 27.695 20.1688 28.8417 14.2549 28.8417H10.1281C9.47031 28.8417 8.93481 29.3772 8.93481 30.0349V38.8068C8.93481 39.4645 8.3993 40 7.74156 40H1.19325C0.535506 40 0 39.4645 0 38.8068V33.8999C0.064028 24.0338 1.33295 15.2736 20.3842 15.2736C10.681 15.2736 2.4156 13.9988 0.448196 0.267753C0.651921 0.0989523 0.913853 0 1.19325 0H14.1385C20.2794 0 24.7555 1.19325 27.5611 3.57974C30.3667 5.96624 31.7695 9.62747 31.7695 14.5693L31.7637 14.5634Z"
    fill="url(#paint0_linear_1187_3209)"
  />
  <defs>
    <linearGradient
      id="paint0_linear_1187_3209"
      x1="0"
      y1="0"
      x2="32"
      y2="40"
      gradientUnits="userSpaceOnUse"
    >
      <stop stop-color="#47BDFF" />
      <stop offset="1" stop-color="#B476E5" />
    </linearGradient>
  </defs>
</svg>